<mxfile host="app.diagrams.net" modified="2020-11-08T13:18:38.834Z" agent="5.0 (X11)" etag="5STb0LL4FPbyEaJM1fei" version="13.9.2" type="github">
  <diagram id="M6aKL1sOtAhpc-JB16SP" name="Page-1">
    <mxGraphModel dx="1176" dy="827" grid="1" gridSize="10" guides="1" tooltips="1" connect="1" arrows="1" fold="1" page="1" pageScale="1" pageWidth="1100" pageHeight="850" math="0" shadow="0">
      <root>
        <mxCell id="0" />
        <mxCell id="1" parent="0" />
        <mxCell id="mH6M8JvOvSh5bMcyXvYs-16" value="Sign " style="edgeStyle=orthogonalEdgeStyle;rounded=0;orthogonalLoop=1;jettySize=auto;html=1;exitX=0.903;exitY=1.017;exitDx=0;exitDy=0;exitPerimeter=0;entryX=1;entryY=0;entryDx=0;entryDy=0;" edge="1" parent="1" source="mH6M8JvOvSh5bMcyXvYs-1" target="mH6M8JvOvSh5bMcyXvYs-18">
          <mxGeometry relative="1" as="geometry">
            <mxPoint x="140" y="320" as="targetPoint" />
          </mxGeometry>
        </mxCell>
        <mxCell id="mH6M8JvOvSh5bMcyXvYs-20" value="Login" style="edgeStyle=orthogonalEdgeStyle;rounded=0;orthogonalLoop=1;jettySize=auto;html=1;exitX=1;exitY=1;exitDx=0;exitDy=0;entryX=1;entryY=0.5;entryDx=0;entryDy=0;" edge="1" parent="1" source="mH6M8JvOvSh5bMcyXvYs-1" target="mH6M8JvOvSh5bMcyXvYs-18">
          <mxGeometry relative="1" as="geometry" />
        </mxCell>
        <mxCell id="mH6M8JvOvSh5bMcyXvYs-27" value="User Memilih Payment" style="edgeStyle=orthogonalEdgeStyle;rounded=0;orthogonalLoop=1;jettySize=auto;html=1;exitX=1;exitY=0.5;exitDx=0;exitDy=0;entryX=0.5;entryY=0;entryDx=0;entryDy=0;" edge="1" parent="1" source="mH6M8JvOvSh5bMcyXvYs-1" target="mH6M8JvOvSh5bMcyXvYs-25">
          <mxGeometry x="-0.0453" y="-10" relative="1" as="geometry">
            <mxPoint x="10" y="9" as="offset" />
          </mxGeometry>
        </mxCell>
        <mxCell id="mH6M8JvOvSh5bMcyXvYs-1" value="User" style="rounded=0;whiteSpace=wrap;html=1;" vertex="1" parent="1">
          <mxGeometry x="80" y="180" width="120" height="60" as="geometry" />
        </mxCell>
        <mxCell id="mH6M8JvOvSh5bMcyXvYs-19" value="Data User" style="edgeStyle=orthogonalEdgeStyle;rounded=0;orthogonalLoop=1;jettySize=auto;html=1;exitX=0;exitY=0;exitDx=0;exitDy=0;entryX=0.083;entryY=1;entryDx=0;entryDy=0;entryPerimeter=0;" edge="1" parent="1" source="mH6M8JvOvSh5bMcyXvYs-18" target="mH6M8JvOvSh5bMcyXvYs-1">
          <mxGeometry relative="1" as="geometry" />
        </mxCell>
        <mxCell id="mH6M8JvOvSh5bMcyXvYs-24" style="edgeStyle=orthogonalEdgeStyle;rounded=0;orthogonalLoop=1;jettySize=auto;html=1;exitX=0.5;exitY=1;exitDx=0;exitDy=0;entryX=0;entryY=0.5;entryDx=0;entryDy=0;" edge="1" parent="1" source="mH6M8JvOvSh5bMcyXvYs-18" target="mH6M8JvOvSh5bMcyXvYs-23">
          <mxGeometry relative="1" as="geometry" />
        </mxCell>
        <mxCell id="mH6M8JvOvSh5bMcyXvYs-18" value="&lt;div&gt;akun gysmart&lt;/div&gt;&lt;div&gt;sport&lt;br&gt;&lt;/div&gt;" style="shape=ellipse;html=1;dashed=0;whitespace=wrap;aspect=fixed;perimeter=ellipsePerimeter;" vertex="1" parent="1">
          <mxGeometry x="95" y="320" width="90" height="90" as="geometry" />
        </mxCell>
        <mxCell id="mH6M8JvOvSh5bMcyXvYs-26" style="edgeStyle=orthogonalEdgeStyle;rounded=0;orthogonalLoop=1;jettySize=auto;html=1;exitX=1;exitY=0.5;exitDx=0;exitDy=0;entryX=0;entryY=0.5;entryDx=0;entryDy=0;" edge="1" parent="1" source="mH6M8JvOvSh5bMcyXvYs-23" target="mH6M8JvOvSh5bMcyXvYs-25">
          <mxGeometry relative="1" as="geometry" />
        </mxCell>
        <mxCell id="mH6M8JvOvSh5bMcyXvYs-23" value="Payment" style="shape=ellipse;html=1;dashed=0;whitespace=wrap;aspect=fixed;perimeter=ellipsePerimeter;" vertex="1" parent="1">
          <mxGeometry x="200" y="440" width="80" height="80" as="geometry" />
        </mxCell>
        <mxCell id="mH6M8JvOvSh5bMcyXvYs-29" value="Detail Payment" style="edgeStyle=orthogonalEdgeStyle;rounded=0;orthogonalLoop=1;jettySize=auto;html=1;exitX=1;exitY=0.5;exitDx=0;exitDy=0;entryX=0.5;entryY=1;entryDx=0;entryDy=0;" edge="1" parent="1" source="mH6M8JvOvSh5bMcyXvYs-25" target="mH6M8JvOvSh5bMcyXvYs-28">
          <mxGeometry relative="1" as="geometry" />
        </mxCell>
        <mxCell id="mH6M8JvOvSh5bMcyXvYs-25" value="&lt;div&gt;A. Indomaret/Alfamaret&lt;/div&gt;&lt;div&gt;B.OVO&lt;/div&gt;&lt;div&gt;C.M-banking&lt;/div&gt;&lt;div&gt;D.Kartu Kredit&lt;/div&gt;&lt;div&gt;E.Langung ke gysmart&lt;br&gt;&lt;/div&gt;" style="html=1;dashed=0;whitespace=wrap;" vertex="1" parent="1">
          <mxGeometry x="330" y="440" width="160" height="80" as="geometry" />
        </mxCell>
        <mxCell id="mH6M8JvOvSh5bMcyXvYs-31" value="ID Kartu " style="edgeStyle=orthogonalEdgeStyle;rounded=0;orthogonalLoop=1;jettySize=auto;html=1;exitX=0.5;exitY=0;exitDx=0;exitDy=0;entryX=0.5;entryY=1;entryDx=0;entryDy=0;" edge="1" parent="1" source="mH6M8JvOvSh5bMcyXvYs-28" target="mH6M8JvOvSh5bMcyXvYs-30">
          <mxGeometry relative="1" as="geometry" />
        </mxCell>
        <mxCell id="mH6M8JvOvSh5bMcyXvYs-28" value="Gysmart Data Store" style="html=1;dashed=0;whitespace=wrap;shape=partialRectangle;right=0;left=0;" vertex="1" parent="1">
          <mxGeometry x="620" y="360" width="160" height="40" as="geometry" />
        </mxCell>
        <mxCell id="mH6M8JvOvSh5bMcyXvYs-32" style="edgeStyle=orthogonalEdgeStyle;rounded=0;orthogonalLoop=1;jettySize=auto;html=1;exitX=0;exitY=0.5;exitDx=0;exitDy=0;entryX=0.75;entryY=0;entryDx=0;entryDy=0;" edge="1" parent="1" source="mH6M8JvOvSh5bMcyXvYs-30" target="mH6M8JvOvSh5bMcyXvYs-1">
          <mxGeometry relative="1" as="geometry" />
        </mxCell>
        <mxCell id="mH6M8JvOvSh5bMcyXvYs-30" value="email user" style="shape=ellipse;html=1;dashed=0;whitespace=wrap;aspect=fixed;perimeter=ellipsePerimeter;" vertex="1" parent="1">
          <mxGeometry x="640" y="160" width="80" height="80" as="geometry" />
        </mxCell>
        <mxCell id="mH6M8JvOvSh5bMcyXvYs-34" value="Level 0" style="text;html=1;align=center;verticalAlign=middle;resizable=0;points=[];autosize=1;" vertex="1" parent="1">
          <mxGeometry x="75" y="80" width="50" height="20" as="geometry" />
        </mxCell>
      </root>
    </mxGraphModel>
  </diagram>
</mxfile>
